<?xml version="1.0" standalone="no"?>
<!DOCTYPE svg PUBLIC "-//W3C//DTD SVG 20010904//EN"
 "http://www.w3.org/TR/2001/REC-SVG-20010904/DTD/svg10.dtd">
<svg version="1.0" xmlns="http://www.w3.org/2000/svg"
 width="228.000000pt" height="228.000000pt" viewBox="0 0 228.000000 228.000000"
 preserveAspectRatio="xMidYMid meet">
<metadata>
Created by potrace 1.14, written by Peter Selinger 2001-2017
</metadata>
<g transform="translate(0.000000,228.000000) scale(0.100000,-0.100000)"
fill="#000000" stroke="none">
<path d="M1346 2157 c-28 -29 -80 -85 -116 -123 -187 -202 -298 -321 -320
-344 -14 -14 -79 -84 -145 -155 -66 -71 -129 -139 -140 -151 -11 -11 -69 -74
-130 -139 -60 -65 -115 -124 -122 -130 -23 -24 -23 -62 0 -87 15 -16 111 -57
283 -121 l260 -98 -63 -312 c-79 -390 -77 -374 -45 -404 52 -48 63 -41 292
206 63 69 130 140 147 159 18 19 59 62 90 96 32 34 108 116 169 182 62 65 126
135 144 154 18 19 82 88 144 154 61 65 116 128 122 139 16 29 -1 74 -35 91
-39 20 -485 186 -499 186 -18 0 -15 31 23 215 20 94 38 181 40 195 3 14 16 81
29 149 26 131 24 161 -13 180 -38 21 -63 12 -115 -42z"/>
</g>
</svg>
